<mxfile host="Electron" agent="Mozilla/5.0 (Windows NT 10.0; Win64; x64) AppleWebKit/537.36 (KHTML, like Gecko) draw.io/28.2.5 Chrome/138.0.7204.251 Electron/37.6.1 Safari/537.36" version="28.2.5">
  <diagram name="PÃ¡gina-1" id="kJQkYTBL6yyXH_fHfAsB">
    <mxGraphModel dx="1028" dy="595" grid="1" gridSize="10" guides="1" tooltips="1" connect="1" arrows="1" fold="1" page="1" pageScale="1" pageWidth="827" pageHeight="1169" math="0" shadow="0">
      <root>
        <mxCell id="0" />
        <mxCell id="1" parent="0" />
        <mxCell id="2o0gJqs7ARTN1i_Wz_S2-6" value="" style="endArrow=none;html=1;edgeStyle=orthogonalEdgeStyle;rounded=0;exitX=0.517;exitY=0.858;exitDx=0;exitDy=0;exitPerimeter=0;" edge="1" parent="1">
          <mxGeometry relative="1" as="geometry">
            <mxPoint x="222.54999999999995" y="190.00199999999998" as="sourcePoint" />
            <mxPoint x="220.25" y="293.40999999999997" as="targetPoint" />
            <Array as="points">
              <mxPoint x="220" y="190.41" />
              <mxPoint x="220" y="196.41" />
            </Array>
          </mxGeometry>
        </mxCell>
        <mxCell id="2o0gJqs7ARTN1i_Wz_S2-7" value="1" style="edgeLabel;resizable=0;html=1;align=left;verticalAlign=bottom;" connectable="0" vertex="1" parent="2o0gJqs7ARTN1i_Wz_S2-6">
          <mxGeometry x="-1" relative="1" as="geometry">
            <mxPoint x="2" y="23" as="offset" />
          </mxGeometry>
        </mxCell>
        <mxCell id="2o0gJqs7ARTN1i_Wz_S2-8" value="0..*" style="edgeLabel;resizable=0;html=1;align=right;verticalAlign=bottom;" connectable="0" vertex="1" parent="2o0gJqs7ARTN1i_Wz_S2-6">
          <mxGeometry x="1" relative="1" as="geometry">
            <mxPoint x="-10" as="offset" />
          </mxGeometry>
        </mxCell>
        <mxCell id="2o0gJqs7ARTN1i_Wz_S2-19" value="Celular" style="swimlane;fontStyle=1;align=center;verticalAlign=top;childLayout=stackLayout;horizontal=1;startSize=26;horizontalStack=0;resizeParent=1;resizeParentMax=0;resizeLast=0;collapsible=1;marginBottom=0;whiteSpace=wrap;html=1;" vertex="1" parent="1">
          <mxGeometry x="430" y="20" width="310" height="240" as="geometry" />
        </mxCell>
        <mxCell id="2o0gJqs7ARTN1i_Wz_S2-20" value="+ Marca: String&lt;div&gt;- _Modelo: String&lt;/div&gt;&lt;div&gt;+ _capacidadeMemoriaInterna: Number {readOnly}&lt;/div&gt;&lt;div&gt;&lt;div&gt;+ qualidadeCamera: number&amp;nbsp;&amp;nbsp;&lt;/div&gt;&lt;div&gt;+ tipo: string&amp;nbsp; &amp;nbsp;&amp;nbsp;&lt;/div&gt;&lt;/div&gt;" style="text;strokeColor=none;fillColor=none;align=left;verticalAlign=top;spacingLeft=4;spacingRight=4;overflow=hidden;rotatable=0;points=[[0,0.5],[1,0.5]];portConstraint=eastwest;whiteSpace=wrap;html=1;" vertex="1" parent="2o0gJqs7ARTN1i_Wz_S2-19">
          <mxGeometry y="26" width="310" height="94" as="geometry" />
        </mxCell>
        <mxCell id="2o0gJqs7ARTN1i_Wz_S2-21" value="" style="line;strokeWidth=1;fillColor=none;align=left;verticalAlign=middle;spacingTop=-1;spacingLeft=3;spacingRight=3;rotatable=0;labelPosition=right;points=[];portConstraint=eastwest;strokeColor=inherit;" vertex="1" parent="2o0gJqs7ARTN1i_Wz_S2-19">
          <mxGeometry y="120" width="310" height="8" as="geometry" />
        </mxCell>
        <mxCell id="2o0gJqs7ARTN1i_Wz_S2-22" value="&lt;div&gt;+ Celular(...)&amp;nbsp; &amp;nbsp; &amp;nbsp; &amp;nbsp; &amp;nbsp; &amp;nbsp; &amp;nbsp;&lt;/div&gt;&lt;div&gt;+ get modelo(): string&amp;nbsp; &amp;nbsp; &amp;nbsp;&lt;/div&gt;&lt;div&gt;+ set modelo(modelo: string): void&amp;nbsp;&lt;/div&gt;&lt;div&gt;+ fazerLigacao(): void&amp;nbsp; &amp;nbsp; &amp;nbsp;&lt;/div&gt;&lt;div&gt;+ receberLigacao(): void&amp;nbsp;&amp;nbsp;&lt;/div&gt;&lt;div&gt;+ fotografar(): void&amp;nbsp;&lt;/div&gt;" style="text;strokeColor=none;fillColor=none;align=left;verticalAlign=top;spacingLeft=4;spacingRight=4;overflow=hidden;rotatable=0;points=[[0,0.5],[1,0.5]];portConstraint=eastwest;whiteSpace=wrap;html=1;" vertex="1" parent="2o0gJqs7ARTN1i_Wz_S2-19">
          <mxGeometry y="128" width="310" height="112" as="geometry" />
        </mxCell>
        <mxCell id="2o0gJqs7ARTN1i_Wz_S2-24" value="Animal" style="swimlane;fontStyle=1;align=center;verticalAlign=top;childLayout=stackLayout;horizontal=1;startSize=26;horizontalStack=0;resizeParent=1;resizeParentMax=0;resizeLast=0;collapsible=1;marginBottom=0;whiteSpace=wrap;html=1;" vertex="1" parent="1">
          <mxGeometry x="100" y="20" width="230" height="170" as="geometry" />
        </mxCell>
        <mxCell id="2o0gJqs7ARTN1i_Wz_S2-25" value="&lt;div&gt;- _nome: string&lt;/div&gt;&lt;div&gt;- _peso: number&lt;/div&gt;&lt;div&gt;- _cor: string&lt;/div&gt;&lt;div&gt;- _raca: string&lt;/div&gt;&lt;div&gt;&lt;br&gt;&lt;/div&gt;" style="text;strokeColor=none;fillColor=none;align=left;verticalAlign=top;spacingLeft=4;spacingRight=4;overflow=hidden;rotatable=0;points=[[0,0.5],[1,0.5]];portConstraint=eastwest;whiteSpace=wrap;html=1;" vertex="1" parent="2o0gJqs7ARTN1i_Wz_S2-24">
          <mxGeometry y="26" width="230" height="74" as="geometry" />
        </mxCell>
        <mxCell id="2o0gJqs7ARTN1i_Wz_S2-26" value="" style="line;strokeWidth=1;fillColor=none;align=left;verticalAlign=middle;spacingTop=-1;spacingLeft=3;spacingRight=3;rotatable=0;labelPosition=right;points=[];portConstraint=eastwest;strokeColor=inherit;" vertex="1" parent="2o0gJqs7ARTN1i_Wz_S2-24">
          <mxGeometry y="100" width="230" height="8" as="geometry" />
        </mxCell>
        <mxCell id="2o0gJqs7ARTN1i_Wz_S2-27" value="&lt;div&gt;+ get nome(): string&lt;/div&gt;&lt;div&gt;# locomover(metros: number): void&lt;/div&gt;" style="text;strokeColor=none;fillColor=none;align=left;verticalAlign=top;spacingLeft=4;spacingRight=4;overflow=hidden;rotatable=0;points=[[0,0.5],[1,0.5]];portConstraint=eastwest;whiteSpace=wrap;html=1;" vertex="1" parent="2o0gJqs7ARTN1i_Wz_S2-24">
          <mxGeometry y="108" width="230" height="62" as="geometry" />
        </mxCell>
        <mxCell id="2o0gJqs7ARTN1i_Wz_S2-28" value="Ave" style="swimlane;fontStyle=1;align=center;verticalAlign=top;childLayout=stackLayout;horizontal=1;startSize=26;horizontalStack=0;resizeParent=1;resizeParentMax=0;resizeLast=0;collapsible=1;marginBottom=0;whiteSpace=wrap;html=1;" vertex="1" parent="1">
          <mxGeometry x="90" y="290" width="260" height="140" as="geometry" />
        </mxCell>
        <mxCell id="2o0gJqs7ARTN1i_Wz_S2-29" value="&lt;div&gt;- _aquatico: boolean&lt;/div&gt;&lt;div&gt;&lt;br&gt;&lt;/div&gt;" style="text;strokeColor=none;fillColor=none;align=left;verticalAlign=top;spacingLeft=4;spacingRight=4;overflow=hidden;rotatable=0;points=[[0,0.5],[1,0.5]];portConstraint=eastwest;whiteSpace=wrap;html=1;" vertex="1" parent="2o0gJqs7ARTN1i_Wz_S2-28">
          <mxGeometry y="26" width="260" height="26" as="geometry" />
        </mxCell>
        <mxCell id="2o0gJqs7ARTN1i_Wz_S2-30" value="" style="line;strokeWidth=1;fillColor=none;align=left;verticalAlign=middle;spacingTop=-1;spacingLeft=3;spacingRight=3;rotatable=0;labelPosition=right;points=[];portConstraint=eastwest;strokeColor=inherit;" vertex="1" parent="2o0gJqs7ARTN1i_Wz_S2-28">
          <mxGeometry y="52" width="260" height="8" as="geometry" />
        </mxCell>
        <mxCell id="2o0gJqs7ARTN1i_Wz_S2-31" value="&lt;div&gt;&lt;span style=&quot;background-color: transparent; color: light-dark(rgb(0, 0, 0), rgb(255, 255, 255));&quot;&gt;+ voar(): void&lt;/span&gt;&lt;/div&gt;&lt;div&gt;+ botarOvo(): void&lt;/div&gt;&lt;div&gt;+ emitirSom(som: string): void&lt;/div&gt;&lt;div&gt;+ locomover(passos: number): void&lt;/div&gt;&lt;div&gt;&lt;br&gt;&lt;/div&gt;" style="text;strokeColor=none;fillColor=none;align=left;verticalAlign=top;spacingLeft=4;spacingRight=4;overflow=hidden;rotatable=0;points=[[0,0.5],[1,0.5]];portConstraint=eastwest;whiteSpace=wrap;html=1;" vertex="1" parent="2o0gJqs7ARTN1i_Wz_S2-28">
          <mxGeometry y="60" width="260" height="80" as="geometry" />
        </mxCell>
      </root>
    </mxGraphModel>
  </diagram>
</mxfile>
